<svg width="389" height="194" viewBox="0 0 389 194" fill="none" xmlns="http://www.w3.org/2000/svg">
<path d="M20.4276 177.75C17.4873 177.75 14.7533 177.363 12.2256 176.589C9.74956 175.815 7.47982 174.654 5.41642 173.107C3.40461 171.507 1.59913 169.547 0 167.225L5.72593 160.648C8.25359 164.259 10.6781 166.761 12.9994 168.154C15.3207 169.547 18.0805 170.243 21.2788 170.243C23.239 170.243 25.0187 169.934 26.6178 169.315C28.217 168.696 29.4808 167.844 30.4093 166.761C31.3379 165.678 31.8021 164.44 31.8021 163.047C31.8021 162.118 31.6474 161.241 31.3379 160.416C31.0284 159.59 30.5383 158.842 29.8677 158.172C29.2487 157.501 28.4233 156.882 27.3916 156.314C26.4115 155.747 25.2508 155.257 23.9096 154.844C22.5684 154.38 21.0209 153.993 19.267 153.683C16.4814 153.116 14.0569 152.368 11.9935 151.439C9.93011 150.511 8.20201 149.35 6.80922 147.957C5.41642 146.564 4.38472 144.991 3.71412 143.237C3.04351 141.431 2.70821 139.419 2.70821 137.201C2.70821 135.034 3.17248 133.022 4.10101 131.165C5.08112 129.308 6.39654 127.708 8.04726 126.367C9.74956 124.974 11.7356 123.917 14.0053 123.194C16.2751 122.42 18.7253 122.034 21.3562 122.034C24.1418 122.034 26.6952 122.395 29.0165 123.117C31.3379 123.839 33.4013 124.922 35.2067 126.367C37.0122 127.76 38.5082 129.488 39.6946 131.552L33.8139 137.355C32.7822 135.653 31.6216 134.234 30.332 133.099C29.0423 131.913 27.6237 131.036 26.0762 130.468C24.5287 129.849 22.8779 129.54 21.124 129.54C19.1122 129.54 17.3583 129.849 15.8624 130.468C14.3664 131.087 13.18 131.964 12.303 133.099C11.4777 134.183 11.065 135.472 11.065 136.968C11.065 138.052 11.2713 139.058 11.684 139.986C12.0967 140.863 12.7157 141.663 13.5411 142.385C14.418 143.056 15.5787 143.675 17.023 144.243C18.4674 144.758 20.1955 145.223 22.2073 145.635C25.0445 146.255 27.5722 147.054 29.7903 148.034C32.0085 148.963 33.8913 150.072 35.4389 151.362C36.9864 152.652 38.1471 154.096 38.9209 155.695C39.7462 157.295 40.1589 159.023 40.1589 160.88C40.1589 164.336 39.3593 167.329 37.7602 169.856C36.1611 172.384 33.8913 174.345 30.951 175.738C28.0106 177.079 24.5029 177.75 20.4276 177.75Z" fill="url(#paint0_linear_24_25)"/>
<path d="M49.9876 194V136.349H58.0349V145.635L56.7969 144.939C57.1064 143.391 57.9833 141.921 59.4277 140.528C60.8721 139.084 62.626 137.923 64.6894 137.046C66.8043 136.117 68.9709 135.653 71.1891 135.653C74.8516 135.653 78.1015 136.556 80.9386 138.361C83.7758 140.167 86.0198 142.643 87.6705 145.79C89.3212 148.937 90.1465 152.548 90.1465 156.624C90.1465 160.648 89.3212 164.259 87.6705 167.458C86.0713 170.604 83.8532 173.107 81.016 174.964C78.1788 176.769 74.9806 177.672 71.4212 177.672C69.0483 177.672 66.7528 177.208 64.5346 176.279C62.3165 175.299 60.4336 174.061 58.886 172.565C57.3385 171.069 56.3842 169.521 56.0231 167.922L58.0349 166.838V194H49.9876ZM70.1058 170.321C72.4787 170.321 74.5937 169.727 76.4507 168.541C78.3078 167.354 79.778 165.729 80.8612 163.666C81.9445 161.602 82.4862 159.255 82.4862 156.624C82.4862 153.993 81.9445 151.671 80.8612 149.659C79.8295 147.596 78.3852 145.971 76.5281 144.784C74.671 143.598 72.5303 143.004 70.1058 143.004C67.6813 143.004 65.5405 143.598 63.6834 144.784C61.8264 145.919 60.3562 147.518 59.2729 149.582C58.1897 151.646 57.648 153.993 57.648 156.624C57.648 159.255 58.1897 161.602 59.2729 163.666C60.3562 165.729 61.8264 167.354 63.6834 168.541C65.5405 169.727 67.6813 170.321 70.1058 170.321Z" fill="url(#paint1_linear_24_25)"/>
<path d="M117.063 177.75C113.091 177.75 109.532 176.847 106.385 175.041C103.29 173.184 100.84 170.682 99.0341 167.535C97.2286 164.336 96.3258 160.699 96.3258 156.624C96.3258 152.548 97.2286 148.937 99.0341 145.79C100.84 142.592 103.29 140.09 106.385 138.284C109.532 136.427 113.091 135.498 117.063 135.498C120.983 135.498 124.491 136.427 127.586 138.284C130.733 140.09 133.209 142.592 135.015 145.79C136.82 148.937 137.723 152.548 137.723 156.624C137.723 160.699 136.82 164.336 135.015 167.535C133.209 170.682 130.733 173.184 127.586 175.041C124.491 176.847 120.983 177.75 117.063 177.75ZM117.063 170.475C119.488 170.475 121.654 169.882 123.563 168.696C125.471 167.458 126.967 165.807 128.051 163.743C129.134 161.628 129.65 159.255 129.598 156.624C129.65 153.941 129.134 151.568 128.051 149.505C126.967 147.389 125.471 145.739 123.563 144.552C121.654 143.366 119.488 142.772 117.063 142.772C114.639 142.772 112.446 143.391 110.486 144.629C108.577 145.816 107.081 147.467 105.998 149.582C104.915 151.646 104.399 153.993 104.45 156.624C104.399 159.255 104.915 161.628 105.998 163.743C107.081 165.807 108.577 167.458 110.486 168.696C112.446 169.882 114.639 170.475 117.063 170.475Z" fill="url(#paint2_linear_24_25)"/>
<path d="M146.407 176.976V136.349H154.454V149.118L153.681 146.022C154.248 144.062 155.202 142.282 156.544 140.683C157.936 139.084 159.51 137.82 161.264 136.891C163.069 135.962 164.926 135.498 166.835 135.498C167.712 135.498 168.537 135.576 169.311 135.73C170.136 135.885 170.781 136.066 171.245 136.272L169.156 144.939C168.537 144.681 167.841 144.475 167.067 144.32C166.345 144.114 165.623 144.01 164.9 144.01C163.508 144.01 162.166 144.294 160.877 144.862C159.639 145.377 158.53 146.126 157.55 147.106C156.621 148.034 155.873 149.143 155.306 150.433C154.738 151.671 154.454 153.038 154.454 154.535V176.976H146.407Z" fill="url(#paint3_linear_24_25)"/>
<path d="M184.156 176.976V125.98H192.126V176.976H184.156ZM175.722 144.088V136.349H201.566V144.088H175.722Z" fill="url(#paint4_linear_24_25)"/>
<path d="M254.497 177.75C250.731 177.75 247.275 177.079 244.128 175.738C240.982 174.396 238.248 172.487 235.926 170.011C233.605 167.483 231.799 164.517 230.51 161.112C229.272 157.707 228.653 153.967 228.653 149.892C228.653 146.022 229.323 142.437 230.665 139.135C232.057 135.782 233.966 132.841 236.391 130.314C238.815 127.786 241.626 125.825 244.825 124.432C248.023 123.039 251.479 122.343 255.193 122.343C257.824 122.343 260.378 122.756 262.854 123.581C265.381 124.355 267.651 125.464 269.663 126.909C271.726 128.302 273.403 129.901 274.692 131.706L269.121 137.51C267.625 136.014 266.103 134.776 264.556 133.796C263.06 132.764 261.512 131.99 259.913 131.474C258.366 130.958 256.792 130.7 255.193 130.7C252.666 130.7 250.293 131.191 248.075 132.171C245.908 133.099 243.999 134.415 242.349 136.117C240.749 137.82 239.486 139.857 238.557 142.231C237.629 144.552 237.164 147.106 237.164 149.892C237.164 152.832 237.603 155.515 238.48 157.939C239.408 160.312 240.698 162.35 242.349 164.053C243.999 165.755 245.96 167.071 248.229 167.999C250.551 168.876 253.104 169.315 255.89 169.315C257.592 169.315 259.268 169.083 260.919 168.618C262.57 168.154 264.117 167.483 265.562 166.606C267.006 165.729 268.322 164.698 269.508 163.511L273.686 170.321C272.5 171.714 270.875 172.978 268.812 174.112C266.8 175.247 264.53 176.15 262.002 176.821C259.526 177.44 257.025 177.75 254.497 177.75Z" fill="url(#paint5_linear_24_25)"/>
<path d="M283.182 176.976V119.712H291.151V176.976H283.182Z" fill="url(#paint6_linear_24_25)"/>
<path d="M316.306 177.75C313.418 177.75 310.89 177.079 308.723 175.738C306.608 174.396 304.958 172.513 303.771 170.089C302.636 167.664 302.069 164.775 302.069 161.422V136.349H310.039V159.255C310.039 161.628 310.4 163.692 311.122 165.446C311.896 167.148 312.979 168.464 314.372 169.392C315.816 170.321 317.544 170.785 319.556 170.785C321.052 170.785 322.419 170.553 323.657 170.089C324.895 169.573 325.953 168.876 326.83 167.999C327.758 167.122 328.48 166.065 328.996 164.826C329.512 163.588 329.77 162.247 329.77 160.803V136.349H337.74V176.976H329.77V168.464L331.163 167.535C330.544 169.444 329.486 171.172 327.99 172.72C326.546 174.267 324.818 175.505 322.806 176.434C320.794 177.311 318.628 177.75 316.306 177.75Z" fill="url(#paint7_linear_24_25)"/>
<path d="M370.275 177.75C368.521 177.75 366.767 177.466 365.013 176.898C363.311 176.331 361.737 175.583 360.293 174.654C358.9 173.674 357.714 172.616 356.734 171.481C355.805 170.295 355.186 169.108 354.877 167.922L356.888 166.838V176.744H348.918V119.712H356.888V145.635L355.65 144.939C355.908 143.752 356.476 142.617 357.353 141.534C358.23 140.399 359.339 139.393 360.68 138.516C362.073 137.588 363.569 136.865 365.168 136.349C366.767 135.782 368.392 135.498 370.043 135.498C373.705 135.498 376.955 136.401 379.792 138.207C382.629 140.012 384.873 142.514 386.524 145.713C388.175 148.86 389 152.471 389 156.546C389 160.622 388.175 164.259 386.524 167.458C384.925 170.656 382.707 173.184 379.869 175.041C377.032 176.847 373.834 177.75 370.275 177.75ZM368.959 170.475C371.332 170.475 373.447 169.882 375.304 168.696C377.161 167.458 378.631 165.807 379.715 163.743C380.798 161.628 381.34 159.229 381.34 156.546C381.34 153.915 380.798 151.568 379.715 149.505C378.683 147.389 377.239 145.739 375.382 144.552C373.525 143.366 371.384 142.772 368.959 142.772C366.535 142.772 364.394 143.366 362.537 144.552C360.68 145.739 359.21 147.389 358.126 149.505C357.043 151.568 356.501 153.915 356.501 156.546C356.501 159.229 357.043 161.628 358.126 163.743C359.21 165.807 360.68 167.458 362.537 168.696C364.394 169.882 366.535 170.475 368.959 170.475Z" fill="url(#paint8_linear_24_25)"/>
<path d="M84.6316 109.265L126.57 0.928597H143.593L185.222 109.265H167.425L142.665 43.9537C142.355 43.2315 141.736 41.4775 140.808 38.6917C139.982 35.9059 139.002 32.8105 137.867 29.4057C136.732 26.0008 135.701 22.9055 134.772 20.1197C133.844 17.2307 133.225 15.3735 132.915 14.5481L136.474 14.3933C135.855 16.1473 135.082 18.3656 134.153 21.0483C133.328 23.7309 132.399 26.5683 131.368 29.5604C130.439 32.5526 129.511 35.39 128.582 38.0726C127.653 40.652 126.88 42.8188 126.261 44.5728L101.655 109.265H84.6316ZM103.202 82.3359L109.392 66.2401H158.604L165.723 82.3359H103.202Z" fill="url(#paint9_linear_24_25)"/>
<path d="M249.703 110.813C241.862 110.813 234.537 109.42 227.728 106.634C220.919 103.745 214.935 99.7729 209.776 94.7172C204.618 89.6615 200.594 83.7803 197.705 77.0738C194.92 70.2641 193.527 62.9384 193.527 55.0969C193.527 47.3586 194.92 40.1362 197.705 33.4296C200.594 26.723 204.566 20.8935 209.622 15.941C214.78 10.8853 220.764 6.9645 227.573 4.1787C234.382 1.3929 241.707 0 249.548 0C255.016 0 260.33 0.773833 265.488 2.3215C270.75 3.86916 275.496 6.0359 279.725 8.8217C283.955 11.6075 287.412 14.806 290.094 18.4172L279.261 29.7152C276.166 26.723 272.968 24.2468 269.666 22.2864C266.468 20.326 263.167 18.8299 259.762 17.7982C256.358 16.7664 252.953 16.2505 249.548 16.2505C243.977 16.2505 238.819 17.2307 234.073 19.1911C229.43 21.1514 225.303 23.8857 221.692 27.3937C218.185 30.9017 215.451 35.0289 213.49 39.775C211.53 44.418 210.55 49.5253 210.55 55.0969C210.55 60.4622 211.582 65.5695 213.645 70.4188C215.709 75.165 218.546 79.3437 222.157 82.9549C225.871 86.5661 230.101 89.4035 234.847 91.4671C239.696 93.5306 244.802 94.5624 250.167 94.5624C254.191 94.5624 258.008 93.9949 261.619 92.86C265.23 91.6219 268.428 89.9194 271.214 87.7527C274 85.586 276.166 83.1097 277.714 80.3239C279.261 77.4349 280.035 74.3912 280.035 71.1927V68.0973L282.356 70.2641H249.239V53.704H297.213C297.419 54.839 297.574 55.9739 297.677 57.1089C297.78 58.1407 297.832 59.1725 297.832 60.2042C297.935 61.1328 297.987 62.0614 297.987 62.99C297.987 70.1093 296.749 76.6095 294.272 82.4906C291.796 88.2686 288.34 93.2727 283.904 97.503C279.571 101.733 274.464 105.035 268.583 107.408C262.806 109.678 256.512 110.813 249.703 110.813Z" fill="url(#paint10_linear_24_25)"/>
<defs>
<linearGradient id="paint0_linear_24_25" x1="356.291" y1="1.3682e-05" x2="32.6964" y2="193.978" gradientUnits="userSpaceOnUse">
<stop stop-color="white"/>
<stop offset="0.572125" stop-color="white"/>
<stop offset="1" stop-color="#E9E9E9"/>
</linearGradient>
<linearGradient id="paint1_linear_24_25" x1="356.291" y1="1.3682e-05" x2="32.6964" y2="193.978" gradientUnits="userSpaceOnUse">
<stop stop-color="white"/>
<stop offset="0.572125" stop-color="white"/>
<stop offset="1" stop-color="#E9E9E9"/>
</linearGradient>
<linearGradient id="paint2_linear_24_25" x1="356.291" y1="1.3682e-05" x2="32.6964" y2="193.978" gradientUnits="userSpaceOnUse">
<stop stop-color="white"/>
<stop offset="0.572125" stop-color="white"/>
<stop offset="1" stop-color="#E9E9E9"/>
</linearGradient>
<linearGradient id="paint3_linear_24_25" x1="356.291" y1="1.3682e-05" x2="32.6964" y2="193.978" gradientUnits="userSpaceOnUse">
<stop stop-color="white"/>
<stop offset="0.572125" stop-color="white"/>
<stop offset="1" stop-color="#E9E9E9"/>
</linearGradient>
<linearGradient id="paint4_linear_24_25" x1="356.291" y1="1.3682e-05" x2="32.6964" y2="193.978" gradientUnits="userSpaceOnUse">
<stop stop-color="white"/>
<stop offset="0.572125" stop-color="white"/>
<stop offset="1" stop-color="#E9E9E9"/>
</linearGradient>
<linearGradient id="paint5_linear_24_25" x1="356.291" y1="1.3682e-05" x2="32.6964" y2="193.978" gradientUnits="userSpaceOnUse">
<stop stop-color="white"/>
<stop offset="0.572125" stop-color="white"/>
<stop offset="1" stop-color="#E9E9E9"/>
</linearGradient>
<linearGradient id="paint6_linear_24_25" x1="356.291" y1="1.3682e-05" x2="32.6964" y2="193.978" gradientUnits="userSpaceOnUse">
<stop stop-color="white"/>
<stop offset="0.572125" stop-color="white"/>
<stop offset="1" stop-color="#E9E9E9"/>
</linearGradient>
<linearGradient id="paint7_linear_24_25" x1="356.291" y1="1.3682e-05" x2="32.6964" y2="193.978" gradientUnits="userSpaceOnUse">
<stop stop-color="white"/>
<stop offset="0.572125" stop-color="white"/>
<stop offset="1" stop-color="#E9E9E9"/>
</linearGradient>
<linearGradient id="paint8_linear_24_25" x1="356.291" y1="1.3682e-05" x2="32.6964" y2="193.978" gradientUnits="userSpaceOnUse">
<stop stop-color="white"/>
<stop offset="0.572125" stop-color="white"/>
<stop offset="1" stop-color="#E9E9E9"/>
</linearGradient>
<linearGradient id="paint9_linear_24_25" x1="356.291" y1="1.3682e-05" x2="32.6964" y2="193.978" gradientUnits="userSpaceOnUse">
<stop stop-color="white"/>
<stop offset="0.572125" stop-color="white"/>
<stop offset="1" stop-color="#E9E9E9"/>
</linearGradient>
<linearGradient id="paint10_linear_24_25" x1="356.291" y1="1.3682e-05" x2="32.6964" y2="193.978" gradientUnits="userSpaceOnUse">
<stop stop-color="white"/>
<stop offset="0.572125" stop-color="white"/>
<stop offset="1" stop-color="#E9E9E9"/>
</linearGradient>
</defs>
</svg>
