<svg width="89" height="27" viewBox="0 0 89 27" fill="none" xmlns="http://www.w3.org/2000/svg">
<g clip-path="url(#clip0_5_58)">
<path d="M3 10.5L12 3.5L21 10.5V21.5C21 22.0304 20.7893 22.5391 20.4142 22.9142C20.0391 23.2893 19.5304 23.5 19 23.5H5C4.46957 23.5 3.96086 23.2893 3.58579 22.9142C3.21071 22.5391 3 22.0304 3 21.5V10.5Z" stroke="white" stroke-width="2" stroke-linecap="round" stroke-linejoin="round"/>
<path d="M9 23.5V13.5H15V23.5" stroke="white" stroke-width="2" stroke-linecap="round" stroke-linejoin="round"/>
<path d="M3 10.5L12 3.5L21 10.5V21.5C21 22.0304 20.7893 22.5391 20.4142 22.9142C20.0391 23.2893 19.5304 23.5 19 23.5H5C4.46957 23.5 3.96086 23.2893 3.58579 22.9142C3.21071 22.5391 3 22.0304 3 21.5V10.5Z" stroke="white" stroke-width="2" stroke-linecap="round" stroke-linejoin="round"/>
<path d="M9 23.5V13.5H15V23.5" stroke="white" stroke-width="2" stroke-linecap="round" stroke-linejoin="round"/>
</g>
<path d="M35.0432 21V20.16H35.3032C35.6099 20.16 35.8832 20.1267 36.1232 20.06C36.3765 19.9933 36.5765 19.86 36.7232 19.66C36.8699 19.4467 36.9432 19.1333 36.9432 18.72V9C36.9432 8.57333 36.8699 8.26 36.7232 8.06C36.5765 7.86 36.3765 7.72667 36.1232 7.66C35.8832 7.59333 35.6099 7.56 35.3032 7.56H35.0432V6.72H40.8632V7.56H40.6032C40.3099 7.56 40.0365 7.59333 39.7832 7.66C39.5299 7.72667 39.3299 7.86 39.1832 8.06C39.0365 8.26 38.9632 8.57333 38.9632 9V18.72C38.9632 19.1333 39.0365 19.4467 39.1832 19.66C39.3299 19.86 39.5299 19.9933 39.7832 20.06C40.0365 20.1267 40.3099 20.16 40.6032 20.16H40.8632V21H35.0432ZM42.187 21V20.16H42.347C42.6536 20.16 42.927 20.1267 43.167 20.06C43.4203 19.9933 43.6203 19.86 43.767 19.66C43.9136 19.4467 43.987 19.1333 43.987 18.72V12.48C43.987 12.08 43.9136 11.7867 43.767 11.6C43.6203 11.4 43.427 11.2733 43.187 11.22C42.947 11.1533 42.6803 11.12 42.387 11.12H42.287V10.28H45.527L45.787 11.9H45.887C46.167 11.3933 46.4603 11.0133 46.767 10.76C47.087 10.4933 47.4336 10.3133 47.807 10.22C48.1803 10.1267 48.5803 10.08 49.007 10.08C50.0603 10.08 50.8803 10.3933 51.467 11.02C52.067 11.6333 52.367 12.6267 52.367 14V18.72C52.367 19.1333 52.427 19.4467 52.547 19.66C52.6803 19.86 52.8603 19.9933 53.087 20.06C53.3136 20.1267 53.5736 20.16 53.867 20.16H53.967V21H50.487V14.1C50.487 13.2333 50.3203 12.56 49.987 12.08C49.667 11.6 49.1003 11.36 48.287 11.36C47.687 11.36 47.207 11.5133 46.847 11.82C46.5003 12.1133 46.247 12.5067 46.087 13C45.9403 13.4933 45.867 14.0267 45.867 14.6V18.82C45.867 19.2067 45.9403 19.5 46.087 19.7C46.2336 19.8867 46.427 20.0133 46.667 20.08C46.907 20.1333 47.1736 20.16 47.467 20.16H47.567V21H42.187ZM54.9776 21V20.16H55.2376C55.5309 20.16 55.7976 20.1333 56.0376 20.08C56.2909 20.0133 56.4909 19.8867 56.6376 19.7C56.7976 19.5 56.8776 19.2067 56.8776 18.82V12.48C56.8776 12.08 56.7976 11.7867 56.6376 11.6C56.4909 11.4 56.2909 11.2733 56.0376 11.22C55.7976 11.1533 55.5309 11.12 55.2376 11.12H55.1776V10.28H58.7576V18.72C58.7576 19.1333 58.8309 19.4467 58.9776 19.66C59.1242 19.86 59.3242 19.9933 59.5776 20.06C59.8309 20.1267 60.1042 20.16 60.3976 20.16H60.6576V21H54.9776ZM57.7376 8.28C57.4176 8.28 57.1442 8.18667 56.9176 8C56.7042 7.81333 56.5976 7.49333 56.5976 7.04C56.5976 6.57333 56.7042 6.25333 56.9176 6.08C57.1442 5.89333 57.4176 5.8 57.7376 5.8C58.0442 5.8 58.3109 5.89333 58.5376 6.08C58.7642 6.25333 58.8776 6.57333 58.8776 7.04C58.8776 7.49333 58.7642 7.81333 58.5376 8C58.3109 8.18667 58.0442 8.28 57.7376 8.28ZM66.5838 21.2C65.7038 21.2 64.9172 21.0133 64.2238 20.64C63.5438 20.2667 63.0038 19.68 62.6038 18.88C62.2172 18.0667 62.0238 17.0067 62.0238 15.7C62.0238 14.2733 62.2172 13.1533 62.6038 12.34C63.0038 11.5133 63.5372 10.9333 64.2038 10.6C64.8838 10.2533 65.6438 10.08 66.4838 10.08C67.0438 10.08 67.5905 10.1533 68.1238 10.3C68.6572 10.4467 69.0972 10.6733 69.4438 10.98C69.7905 11.2733 69.9638 11.6533 69.9638 12.12C69.9638 12.4267 69.8972 12.6733 69.7638 12.86C69.6305 13.0467 69.4305 13.18 69.1638 13.26C68.9105 13.34 68.5838 13.38 68.1838 13.38C68.1838 12.9533 68.1305 12.5667 68.0238 12.22C67.9305 11.8733 67.7638 11.6 67.5238 11.4C67.2838 11.1867 66.9372 11.08 66.4838 11.08C65.9772 11.08 65.5305 11.2133 65.1438 11.48C64.7705 11.7467 64.4772 12.2133 64.2638 12.88C64.0638 13.5467 63.9638 14.48 63.9638 15.68C63.9638 16.6267 64.0638 17.4133 64.2638 18.04C64.4772 18.6667 64.8038 19.1333 65.2438 19.44C65.6838 19.7467 66.2638 19.9 66.9838 19.9C67.3972 19.9 67.7772 19.84 68.1238 19.72C68.4705 19.6 68.7705 19.4333 69.0238 19.22C69.2905 19.0067 69.4972 18.7667 69.6438 18.5C69.7505 18.58 69.8305 18.6867 69.8838 18.82C69.9505 18.94 69.9838 19.0933 69.9838 19.28C69.9838 19.5867 69.8572 19.8867 69.6038 20.18C69.3505 20.4733 68.9705 20.72 68.4638 20.92C67.9705 21.1067 67.3438 21.2 66.5838 21.2ZM71.2276 21V20.16H71.4876C71.7809 20.16 72.0476 20.1333 72.2876 20.08C72.5409 20.0133 72.7409 19.8867 72.8876 19.7C73.0476 19.5 73.1276 19.2067 73.1276 18.82V12.48C73.1276 12.08 73.0476 11.7867 72.8876 11.6C72.7409 11.4 72.5409 11.2733 72.2876 11.22C72.0476 11.1533 71.7809 11.12 71.4876 11.12H71.4276V10.28H75.0076V18.72C75.0076 19.1333 75.0809 19.4467 75.2276 19.66C75.3742 19.86 75.5742 19.9933 75.8276 20.06C76.0809 20.1267 76.3542 20.16 76.6476 20.16H76.9076V21H71.2276ZM73.9876 8.28C73.6676 8.28 73.3942 8.18667 73.1676 8C72.9542 7.81333 72.8476 7.49333 72.8476 7.04C72.8476 6.57333 72.9542 6.25333 73.1676 6.08C73.3942 5.89333 73.6676 5.8 73.9876 5.8C74.2942 5.8 74.5609 5.89333 74.7876 6.08C75.0142 6.25333 75.1276 6.57333 75.1276 7.04C75.1276 7.49333 75.0142 7.81333 74.7876 8C74.5609 8.18667 74.2942 8.28 73.9876 8.28ZM82.9138 21.2C81.4738 21.2 80.3405 20.74 79.5138 19.82C78.6872 18.9 78.2738 17.5 78.2738 15.62C78.2738 13.7533 78.6672 12.3667 79.4538 11.46C80.2538 10.54 81.4272 10.08 82.9738 10.08C84.4138 10.08 85.5472 10.54 86.3738 11.46C87.2005 12.3667 87.6138 13.7533 87.6138 15.62C87.6138 17.5 87.2138 18.9 86.4138 19.82C85.6272 20.74 84.4605 21.2 82.9138 21.2ZM82.9538 20.16C83.6205 20.16 84.1538 19.9933 84.5538 19.66C84.9538 19.3133 85.2405 18.8 85.4138 18.12C85.5872 17.44 85.6738 16.6067 85.6738 15.62C85.6738 14.62 85.5805 13.7933 85.3938 13.14C85.2205 12.4733 84.9338 11.9733 84.5338 11.64C84.1338 11.3067 83.6005 11.14 82.9338 11.14C82.2672 11.14 81.7338 11.3067 81.3338 11.64C80.9338 11.9733 80.6472 12.4733 80.4738 13.14C80.3005 13.7933 80.2138 14.62 80.2138 15.62C80.2138 16.6067 80.3005 17.44 80.4738 18.12C80.6605 18.8 80.9538 19.3133 81.3538 19.66C81.7538 19.9933 82.2872 20.16 82.9538 20.16Z" fill="white"/>
<defs>
<clipPath id="clip0_5_58">
<rect width="24" height="24" fill="white" transform="translate(0 1.5)"/>
</clipPath>
</defs>
</svg>
