<svg width="119" height="24" viewBox="0 0 119 24" fill="none" xmlns="http://www.w3.org/2000/svg">
<path d="M17.7143 1.5H6.28571C5.02335 1.5 4 2.18879 4 3.03846V19.9615C4 20.8112 5.02335 21.5 6.28571 21.5H17.7143C18.9767 21.5 20 20.8112 20 19.9615V3.03846C20 2.18879 18.9767 1.5 17.7143 1.5Z" stroke="white" stroke-width="2" stroke-linecap="round" stroke-linejoin="round"/>
<path d="M45.4749 23.6C44.9416 23.6 44.4149 23.5267 43.8949 23.38C43.3749 23.2333 42.8949 22.9933 42.4549 22.66C42.0283 22.3267 41.6683 21.8733 41.3749 21.3C41.0949 20.7267 40.9216 20.0133 40.8549 19.16C39.6416 19.0267 38.6283 18.6467 37.8149 18.02C37.0149 17.38 36.4149 16.5333 36.0149 15.48C35.6149 14.4133 35.4149 13.1933 35.4149 11.82C35.4149 10.34 35.6416 9.05333 36.0949 7.96C36.5616 6.86667 37.2616 6.02 38.1949 5.42C39.1416 4.80667 40.3216 4.5 41.7349 4.5C43.0816 4.5 44.2149 4.80667 45.1349 5.42C46.0683 6.02 46.7749 6.87333 47.2549 7.98C47.7483 9.07333 47.9949 10.36 47.9949 11.84C47.9949 13.1333 47.8016 14.2933 47.4149 15.32C47.0416 16.3333 46.4883 17.1667 45.7549 17.82C45.0216 18.46 44.1216 18.88 43.0549 19.08C43.1083 19.76 43.2149 20.3267 43.3749 20.78C43.5483 21.2467 43.7616 21.6133 44.0149 21.88C44.2683 22.16 44.5616 22.36 44.8949 22.48C45.2416 22.6 45.6149 22.66 46.0149 22.66H46.3349V23.6H45.4749ZM41.7149 18.12C42.4616 18.12 43.0883 17.98 43.5949 17.7C44.1149 17.42 44.5349 17.0133 44.8549 16.48C45.1749 15.9333 45.4083 15.2733 45.5549 14.5C45.7016 13.7133 45.7749 12.8267 45.7749 11.84C45.7749 10.8533 45.7016 9.97333 45.5549 9.2C45.4083 8.42667 45.1749 7.77333 44.8549 7.24C44.5483 6.69333 44.1349 6.28 43.6149 6C43.1083 5.72 42.4816 5.58 41.7349 5.58C40.9883 5.58 40.3549 5.72 39.8349 6C39.3149 6.28 38.8883 6.69333 38.5549 7.24C38.2349 7.77333 38.0016 8.42667 37.8549 9.2C37.7083 9.97333 37.6349 10.8533 37.6349 11.84C37.6349 12.8267 37.7083 13.7133 37.8549 14.5C38.0016 15.2733 38.2349 15.9333 38.5549 16.48C38.8883 17.0133 39.3149 17.42 39.8349 17.7C40.3549 17.98 40.9816 18.12 41.7149 18.12ZM54.5987 19.2C53.5453 19.2 52.732 18.8933 52.1587 18.28C51.5853 17.6533 51.2987 16.6533 51.2987 15.28V10.48C51.2987 10.08 51.2187 9.78667 51.0587 9.6C50.912 9.4 50.712 9.27333 50.4587 9.22C50.2187 9.15333 49.952 9.12 49.6587 9.12H49.5987V8.28H53.1787V15.18C53.1787 15.7533 53.2387 16.2467 53.3587 16.66C53.492 17.0733 53.712 17.3867 54.0187 17.6C54.3253 17.8133 54.7453 17.92 55.2787 17.92C55.8653 17.92 56.3453 17.7867 56.7187 17.52C57.092 17.24 57.3653 16.86 57.5387 16.38C57.712 15.8867 57.7987 15.32 57.7987 14.68V10.56C57.7987 10.1333 57.7253 9.82 57.5787 9.62C57.432 9.42 57.232 9.28667 56.9787 9.22C56.7387 9.15333 56.4653 9.12 56.1587 9.12H56.0987V8.28H59.6787V16.82C59.6787 17.2067 59.752 17.5 59.8987 17.7C60.0587 17.8867 60.2587 18.0133 60.4987 18.08C60.752 18.1333 61.0253 18.16 61.3187 18.16H61.3787V19H58.1987L57.9387 17.38H57.8387C57.6387 17.7533 57.412 18.06 57.1587 18.3C56.9187 18.54 56.6653 18.7267 56.3987 18.86C56.132 18.98 55.8453 19.0667 55.5387 19.12C55.232 19.1733 54.9187 19.2 54.5987 19.2ZM65.934 19.2C65.3473 19.2 64.814 19.0867 64.334 18.86C63.8673 18.62 63.5007 18.2667 63.234 17.8C62.9673 17.32 62.834 16.72 62.834 16C62.834 14.9333 63.2073 14.1467 63.954 13.64C64.714 13.1333 65.8607 12.8533 67.394 12.8L69.054 12.74V11.54C69.054 11.06 69.014 10.64 68.934 10.28C68.854 9.90667 68.6807 9.61333 68.414 9.4C68.1473 9.18667 67.7407 9.08 67.194 9.08C66.6873 9.08 66.3007 9.17333 66.034 9.36C65.7673 9.54667 65.5873 9.80667 65.494 10.14C65.414 10.46 65.374 10.8333 65.374 11.26C64.814 11.26 64.3873 11.1667 64.094 10.98C63.814 10.78 63.674 10.4533 63.674 10C63.674 9.53333 63.834 9.16 64.154 8.88C64.4873 8.6 64.9273 8.4 65.474 8.28C66.0207 8.14667 66.6207 8.08 67.274 8.08C68.5007 8.08 69.414 8.34 70.014 8.86C70.6273 9.38 70.934 10.2733 70.934 11.54V16.72C70.934 17.0933 70.974 17.3867 71.054 17.6C71.134 17.8 71.2673 17.9467 71.454 18.04C71.6407 18.12 71.8807 18.16 72.174 18.16H72.234V19H69.534L69.214 17.28H69.054C68.774 17.6533 68.5007 17.9867 68.234 18.28C67.9673 18.56 67.654 18.7867 67.294 18.96C66.9473 19.12 66.494 19.2 65.934 19.2ZM66.394 17.96C66.9407 17.96 67.4073 17.8467 67.794 17.62C68.194 17.3933 68.5007 17.0733 68.714 16.66C68.9407 16.2333 69.054 15.74 69.054 15.18V13.56L67.774 13.62C67.014 13.6467 66.414 13.76 65.974 13.96C65.5473 14.16 65.2407 14.44 65.054 14.8C64.8673 15.1467 64.774 15.58 64.774 16.1C64.774 16.5133 64.834 16.86 64.954 17.14C65.074 17.4067 65.254 17.6133 65.494 17.76C65.734 17.8933 66.034 17.96 66.394 17.96ZM78.2835 19.2C77.4035 19.2 76.6568 19.0067 76.0435 18.62C75.4435 18.2333 74.9835 17.6333 74.6635 16.82C74.3568 15.9933 74.2035 14.94 74.2035 13.66C74.2035 12.3667 74.3568 11.3133 74.6635 10.5C74.9835 9.67333 75.4435 9.06667 76.0435 8.68C76.6568 8.28 77.4035 8.08 78.2835 8.08C79.0568 8.08 79.6835 8.24667 80.1635 8.58C80.6568 8.9 81.0502 9.32 81.3435 9.84H81.4635C81.4368 9.61333 81.4102 9.37333 81.3835 9.12C81.3702 8.86667 81.3568 8.61333 81.3435 8.36C81.3435 8.09333 81.3435 7.85333 81.3435 7.64V6C81.3435 5.6 81.2635 5.30667 81.1035 5.12C80.9568 4.92 80.7568 4.79333 80.5035 4.74C80.2635 4.67333 79.9968 4.64 79.7035 4.64H79.5435V3.8H83.2235V16.8C83.2235 17.1867 83.2968 17.48 83.4435 17.68C83.6035 17.88 83.8035 18.0133 84.0435 18.08C84.2968 18.1333 84.5702 18.16 84.8635 18.16H85.0235V19H81.6435L81.4235 17.2H81.3435C81.0502 17.8133 80.6635 18.3 80.1835 18.66C79.7035 19.02 79.0702 19.2 78.2835 19.2ZM78.6235 17.92C79.6635 17.92 80.3768 17.5733 80.7635 16.88C81.1502 16.1733 81.3435 15.1 81.3435 13.66C81.3435 12.7267 81.2568 11.9467 81.0835 11.32C80.9235 10.68 80.6435 10.1933 80.2435 9.86C79.8568 9.52667 79.3102 9.36 78.6035 9.36C78.0168 9.36 77.5435 9.52667 77.1835 9.86C76.8235 10.1933 76.5568 10.68 76.3835 11.32C76.2235 11.96 76.1435 12.7467 76.1435 13.68C76.1435 14.6267 76.2235 15.4133 76.3835 16.04C76.5568 16.6667 76.8235 17.14 77.1835 17.46C77.5568 17.7667 78.0368 17.92 78.6235 17.92ZM86.0487 19V18.16H86.1087C86.4153 18.16 86.6887 18.1267 86.9287 18.06C87.182 17.9933 87.382 17.86 87.5287 17.66C87.6753 17.4467 87.7487 17.1333 87.7487 16.72V10.48C87.7487 10.08 87.6687 9.78667 87.5087 9.6C87.362 9.4 87.162 9.27333 86.9087 9.22C86.6687 9.15333 86.402 9.12 86.1087 9.12H86.0487V8.28H89.1287L89.5087 10.26H89.6087C89.782 9.86 89.9687 9.49333 90.1687 9.16C90.3687 8.82667 90.6353 8.56667 90.9687 8.38C91.302 8.18 91.762 8.08 92.3487 8.08C93.082 8.08 93.622 8.20667 93.9687 8.46C94.3287 8.71333 94.5087 9.07333 94.5087 9.54C94.5087 9.95333 94.362 10.2933 94.0687 10.56C93.7887 10.8267 93.3153 10.96 92.6487 10.96C92.6487 10.5867 92.6153 10.2867 92.5487 10.06C92.482 9.83333 92.3687 9.66667 92.2087 9.56C92.062 9.45333 91.8553 9.4 91.5887 9.4C91.2153 9.4 90.902 9.54667 90.6487 9.84C90.3953 10.1333 90.1953 10.5067 90.0487 10.96C89.902 11.4133 89.7953 11.8867 89.7287 12.38C89.662 12.86 89.6287 13.2933 89.6287 13.68V16.82C89.6287 17.2067 89.702 17.5 89.8487 17.7C90.0087 17.8867 90.2087 18.0133 90.4487 18.08C90.702 18.1333 90.9753 18.16 91.2687 18.16H91.8287V19H86.0487ZM98.5121 19.2C97.9254 19.2 97.3921 19.0867 96.9121 18.86C96.4454 18.62 96.0788 18.2667 95.8121 17.8C95.5454 17.32 95.4121 16.72 95.4121 16C95.4121 14.9333 95.7854 14.1467 96.5321 13.64C97.2921 13.1333 98.4388 12.8533 99.9721 12.8L101.632 12.74V11.54C101.632 11.06 101.592 10.64 101.512 10.28C101.432 9.90667 101.259 9.61333 100.992 9.4C100.725 9.18667 100.319 9.08 99.7721 9.08C99.2654 9.08 98.8788 9.17333 98.6121 9.36C98.3454 9.54667 98.1654 9.80667 98.0721 10.14C97.9921 10.46 97.9521 10.8333 97.9521 11.26C97.3921 11.26 96.9654 11.1667 96.6721 10.98C96.3921 10.78 96.2521 10.4533 96.2521 10C96.2521 9.53333 96.4121 9.16 96.7321 8.88C97.0654 8.6 97.5054 8.4 98.0521 8.28C98.5988 8.14667 99.1988 8.08 99.8521 8.08C101.079 8.08 101.992 8.34 102.592 8.86C103.205 9.38 103.512 10.2733 103.512 11.54V16.72C103.512 17.0933 103.552 17.3867 103.632 17.6C103.712 17.8 103.845 17.9467 104.032 18.04C104.219 18.12 104.459 18.16 104.752 18.16H104.812V19H102.112L101.792 17.28H101.632C101.352 17.6533 101.079 17.9867 100.812 18.28C100.545 18.56 100.232 18.7867 99.8721 18.96C99.5254 19.12 99.0721 19.2 98.5121 19.2ZM98.9721 17.96C99.5188 17.96 99.9854 17.8467 100.372 17.62C100.772 17.3933 101.079 17.0733 101.292 16.66C101.519 16.2333 101.632 15.74 101.632 15.18V13.56L100.352 13.62C99.5921 13.6467 98.9921 13.76 98.5521 13.96C98.1254 14.16 97.8188 14.44 97.6321 14.8C97.4454 15.1467 97.3521 15.58 97.3521 16.1C97.3521 16.5133 97.4121 16.86 97.5321 17.14C97.6521 17.4067 97.8321 17.6133 98.0721 17.76C98.3121 17.8933 98.6121 17.96 98.9721 17.96ZM109.882 19.2C109.215 19.2 108.635 19.12 108.142 18.96C107.648 18.8 107.262 18.5667 106.982 18.26C106.715 17.94 106.582 17.5467 106.582 17.08C106.582 16.72 106.655 16.44 106.802 16.24C106.948 16.04 107.115 15.9 107.302 15.82C107.502 15.74 107.682 15.7 107.842 15.7C107.842 16.1667 107.908 16.5933 108.042 16.98C108.175 17.3667 108.402 17.6733 108.722 17.9C109.042 18.1267 109.468 18.24 110.002 18.24C110.708 18.24 111.248 18.0733 111.622 17.74C112.008 17.3933 112.202 16.9533 112.202 16.42C112.202 16.0867 112.128 15.8133 111.982 15.6C111.848 15.3867 111.602 15.18 111.242 14.98C110.895 14.7667 110.395 14.52 109.742 14.24C109.062 13.9333 108.495 13.64 108.042 13.36C107.602 13.0667 107.268 12.7333 107.042 12.36C106.828 11.9733 106.722 11.4933 106.722 10.92C106.722 10.0133 107.062 9.32 107.742 8.84C108.435 8.34667 109.348 8.1 110.482 8.1C111.122 8.1 111.655 8.18667 112.082 8.36C112.522 8.52 112.848 8.74 113.062 9.02C113.288 9.3 113.402 9.60667 113.402 9.94C113.402 10.3 113.275 10.5933 113.022 10.82C112.782 11.0333 112.428 11.14 111.962 11.14C111.962 10.4733 111.822 9.95333 111.542 9.58C111.262 9.20667 110.828 9.02 110.242 9.02C109.788 9.02 109.422 9.08667 109.142 9.22C108.862 9.35333 108.655 9.54 108.522 9.78C108.402 10.02 108.342 10.3 108.342 10.62C108.342 10.9533 108.422 11.2333 108.582 11.46C108.755 11.6867 109.022 11.9 109.382 12.1C109.755 12.2867 110.235 12.5 110.822 12.74C111.528 13.0333 112.102 13.3267 112.542 13.62C112.982 13.9133 113.302 14.2533 113.502 14.64C113.715 15.0267 113.822 15.5 113.822 16.06C113.822 17.1 113.462 17.8867 112.742 18.42C112.022 18.94 111.068 19.2 109.882 19.2Z" fill="white"/>
</svg>
