<svg width="24" height="25" viewBox="0 0 24 25" fill="none" xmlns="http://www.w3.org/2000/svg">
<path d="M7.21002 15.5L2.66002 7.64C2.46382 7.30087 2.37155 6.91159 2.39466 6.52048C2.41777 6.12937 2.55524 5.75366 2.79002 5.44L4.40002 3.3C4.58631 3.05161 4.82788 2.85 5.10559 2.71115C5.3833 2.57229 5.68953 2.5 6.00002 2.5H18C18.3105 2.5 18.6167 2.57229 18.8944 2.71115C19.1722 2.85 19.4137 3.05161 19.6 3.3L21.2 5.44C21.4363 5.75265 21.5756 6.12784 21.6005 6.51897C21.6254 6.9101 21.5348 7.29992 21.34 7.64L16.79 15.5" stroke="white" stroke-width="2" stroke-linecap="round" stroke-linejoin="round"/>
<path d="M11 12.5L5.12 2.70001" stroke="white" stroke-width="2" stroke-linecap="round" stroke-linejoin="round"/>
<path d="M13 12.5L18.88 2.70001" stroke="white" stroke-width="2" stroke-linecap="round" stroke-linejoin="round"/>
<path d="M8 7.5H16" stroke="white" stroke-width="2" stroke-linecap="round" stroke-linejoin="round"/>
<path d="M12 22.5C14.7614 22.5 17 20.2614 17 17.5C17 14.7386 14.7614 12.5 12 12.5C9.23858 12.5 7 14.7386 7 17.5C7 20.2614 9.23858 22.5 12 22.5Z" stroke="white" stroke-width="2" stroke-linecap="round" stroke-linejoin="round"/>
<path d="M12 18.5V16.5H11.5" stroke="white" stroke-width="2" stroke-linecap="round" stroke-linejoin="round"/>
</svg>
