<svg width="20" height="21" viewBox="0 0 20 21" fill="none" xmlns="http://www.w3.org/2000/svg">
<path fill-rule="evenodd" clip-rule="evenodd" d="M17 2.5C17.2652 2.5 17.5196 2.60536 17.7071 2.79289C17.8946 2.98043 18 3.23478 18 3.5V17.5C18 17.7652 17.8946 18.0196 17.7071 18.2071C17.5196 18.3946 17.2652 18.5 17 18.5H13C12.4477 18.5 12 18.9477 12 19.5C12 20.0523 12.4477 20.5 13 20.5H17C17.7957 20.5 18.5587 20.1839 19.1213 19.6213C19.6839 19.0587 20 18.2957 20 17.5V3.5C20 2.70435 19.6839 1.94129 19.1213 1.37868C18.5587 0.81607 17.7956 0.5 17 0.5H13C12.4477 0.5 12 0.947715 12 1.5C12 2.05228 12.4477 2.5 13 2.5H17ZM6.70711 4.79289C6.31658 4.40237 5.68342 4.40237 5.29289 4.79289L0.293607 9.79218C0.291191 9.79459 0.288787 9.79702 0.286395 9.79945C0.193742 9.8938 0.12357 10.002 0.0758789 10.1172C0.0269857 10.2351 0 10.3644 0 10.5C0 10.6356 0.0269857 10.7649 0.0758789 10.8828C0.12357 10.998 0.193742 11.1062 0.286395 11.2005C0.288787 11.203 0.291191 11.2054 0.293607 11.2078L5.29289 16.2071C5.68342 16.5976 6.31658 16.5976 6.70711 16.2071C7.09763 15.8166 7.09763 15.1834 6.70711 14.7929L3.41421 11.5H13C13.5523 11.5 14 11.0523 14 10.5C14 9.94771 13.5523 9.5 13 9.5H3.41421L6.70711 6.20711C7.09763 5.81658 7.09763 5.18342 6.70711 4.79289Z" fill="white"/>
</svg>
