<svg width="116" height="27" viewBox="0 0 116 27" fill="none" xmlns="http://www.w3.org/2000/svg">
<path d="M7.21002 16.5L2.66002 8.64C2.46382 8.30087 2.37155 7.91159 2.39466 7.52048C2.41777 7.12937 2.55524 6.75366 2.79002 6.44L4.40002 4.3C4.58631 4.05161 4.82788 3.85 5.10559 3.71115C5.3833 3.57229 5.68953 3.5 6.00002 3.5H18C18.3105 3.5 18.6167 3.57229 18.8944 3.71115C19.1722 3.85 19.4137 4.05161 19.6 4.3L21.2 6.44C21.4363 6.75265 21.5756 7.12784 21.6005 7.51897C21.6254 7.9101 21.5348 8.29992 21.34 8.64L16.79 16.5" stroke="white" stroke-width="2" stroke-linecap="round" stroke-linejoin="round"/>
<path d="M11 13.5L5.12 3.70001" stroke="white" stroke-width="2" stroke-linecap="round" stroke-linejoin="round"/>
<path d="M13 13.5L18.88 3.70001" stroke="white" stroke-width="2" stroke-linecap="round" stroke-linejoin="round"/>
<path d="M8 8.5H16" stroke="white" stroke-width="2" stroke-linecap="round" stroke-linejoin="round"/>
<path d="M12 23.5C14.7614 23.5 17 21.2614 17 18.5C17 15.7386 14.7614 13.5 12 13.5C9.23858 13.5 7 15.7386 7 18.5C7 21.2614 9.23858 23.5 12 23.5Z" stroke="white" stroke-width="2" stroke-linecap="round" stroke-linejoin="round"/>
<path d="M12 19.5V17.5H11.5" stroke="white" stroke-width="2" stroke-linecap="round" stroke-linejoin="round"/>
<path d="M35.0178 21V20.16H35.2778C35.5711 20.16 35.8378 20.1333 36.0778 20.08C36.3311 20.0133 36.5311 19.8867 36.6778 19.7C36.8378 19.5 36.9178 19.2067 36.9178 18.82V9C36.9178 8.57333 36.8445 8.26 36.6978 8.06C36.5511 7.86 36.3511 7.72667 36.0978 7.66C35.8578 7.59333 35.5845 7.56 35.2778 7.56H35.0178V6.72H45.0978L45.1978 10.22H44.1578L44.0578 9.36C44.0311 9.06667 43.9511 8.8 43.8178 8.56C43.6978 8.30667 43.5111 8.10667 43.2578 7.96C43.0178 7.8 42.6978 7.72 42.2978 7.72H38.9378V13.04H43.7578V14.02H38.9378V20H42.7978C43.2245 20 43.5645 19.9267 43.8178 19.78C44.0845 19.62 44.2845 19.42 44.4178 19.18C44.5645 18.9267 44.6578 18.6533 44.6978 18.36L44.8378 17.5H45.8778L45.7378 21H35.0178ZM50.9188 21.2C50.2521 21.2 49.6721 21.12 49.1788 20.96C48.6854 20.8 48.2988 20.5667 48.0188 20.26C47.7521 19.94 47.6188 19.5467 47.6188 19.08C47.6188 18.72 47.6921 18.44 47.8388 18.24C47.9854 18.04 48.1521 17.9 48.3388 17.82C48.5388 17.74 48.7188 17.7 48.8788 17.7C48.8788 18.1667 48.9454 18.5933 49.0788 18.98C49.2121 19.3667 49.4388 19.6733 49.7588 19.9C50.0788 20.1267 50.5054 20.24 51.0388 20.24C51.7454 20.24 52.2854 20.0733 52.6588 19.74C53.0454 19.3933 53.2388 18.9533 53.2388 18.42C53.2388 18.0867 53.1654 17.8133 53.0188 17.6C52.8854 17.3867 52.6388 17.18 52.2788 16.98C51.9321 16.7667 51.4321 16.52 50.7788 16.24C50.0988 15.9333 49.5321 15.64 49.0788 15.36C48.6388 15.0667 48.3054 14.7333 48.0788 14.36C47.8654 13.9733 47.7588 13.4933 47.7588 12.92C47.7588 12.0133 48.0988 11.32 48.7788 10.84C49.4721 10.3467 50.3854 10.1 51.5188 10.1C52.1588 10.1 52.6921 10.1867 53.1188 10.36C53.5588 10.52 53.8854 10.74 54.0988 11.02C54.3254 11.3 54.4388 11.6067 54.4388 11.94C54.4388 12.3 54.3121 12.5933 54.0588 12.82C53.8188 13.0333 53.4654 13.14 52.9988 13.14C52.9988 12.4733 52.8588 11.9533 52.5788 11.58C52.2988 11.2067 51.8654 11.02 51.2788 11.02C50.8254 11.02 50.4588 11.0867 50.1788 11.22C49.8988 11.3533 49.6921 11.54 49.5588 11.78C49.4388 12.02 49.3788 12.3 49.3788 12.62C49.3788 12.9533 49.4588 13.2333 49.6188 13.46C49.7921 13.6867 50.0588 13.9 50.4188 14.1C50.7921 14.2867 51.2721 14.5 51.8587 14.74C52.5654 15.0333 53.1388 15.3267 53.5788 15.62C54.0188 15.9133 54.3388 16.2533 54.5388 16.64C54.7521 17.0267 54.8588 17.5 54.8588 18.06C54.8588 19.1 54.4988 19.8867 53.7788 20.42C53.0588 20.94 52.1054 21.2 50.9188 21.2ZM56.1022 25.8V24.96H56.2622C56.5689 24.96 56.8422 24.9267 57.0822 24.86C57.3355 24.7933 57.5355 24.6533 57.6822 24.44C57.8289 24.24 57.9022 23.9333 57.9022 23.52V12.48C57.9022 12.08 57.8222 11.7867 57.6622 11.6C57.5155 11.4 57.3155 11.2733 57.0622 11.22C56.8222 11.1533 56.5555 11.12 56.2622 11.12H56.0022V10.28H59.5022L59.7022 12.08H59.7822C60.0889 11.4667 60.4822 10.98 60.9622 10.62C61.4422 10.26 62.0689 10.08 62.8422 10.08C64.1622 10.08 65.1689 10.5267 65.8622 11.42C66.5689 12.3 66.9222 13.7 66.9222 15.62C66.9222 17.5533 66.5689 18.9667 65.8622 19.86C65.1689 20.7533 64.1622 21.2 62.8422 21.2C62.0689 21.2 61.4355 21.04 60.9422 20.72C60.4622 20.3867 60.0755 19.96 59.7822 19.44H59.7022C59.7289 19.6933 59.7422 19.9667 59.7422 20.26C59.7555 20.54 59.7622 20.8067 59.7622 21.06C59.7755 21.3133 59.7822 21.5267 59.7822 21.7V23.62C59.7822 24.0067 59.8555 24.2933 60.0022 24.48C60.1622 24.68 60.3622 24.8067 60.6022 24.86C60.8555 24.9267 61.1289 24.96 61.4222 24.96H61.4822V25.8H56.1022ZM62.5222 19.92C63.1089 19.92 63.5822 19.7533 63.9422 19.42C64.3022 19.0867 64.5622 18.6 64.7222 17.96C64.8955 17.32 64.9822 16.5333 64.9822 15.6C64.9822 14.6533 64.8955 13.8667 64.7222 13.24C64.5622 12.6133 64.3022 12.1467 63.9422 11.84C63.5822 11.52 63.1022 11.36 62.5022 11.36C61.8089 11.36 61.2622 11.5133 60.8622 11.82C60.4755 12.1267 60.1955 12.6 60.0222 13.24C59.8622 13.8667 59.7822 14.66 59.7822 15.62C59.7822 16.54 59.8622 17.32 60.0222 17.96C60.1955 18.6 60.4822 19.0867 60.8822 19.42C61.2822 19.7533 61.8289 19.92 62.5222 19.92ZM73.7673 21.2C72.3273 21.2 71.194 20.74 70.3673 19.82C69.5407 18.9 69.1273 17.5 69.1273 15.62C69.1273 13.7533 69.5207 12.3667 70.3073 11.46C71.1073 10.54 72.2807 10.08 73.8273 10.08C75.2673 10.08 76.4007 10.54 77.2273 11.46C78.054 12.3667 78.4673 13.7533 78.4673 15.62C78.4673 17.5 78.0673 18.9 77.2673 19.82C76.4807 20.74 75.314 21.2 73.7673 21.2ZM73.8073 20.16C74.474 20.16 75.0073 19.9933 75.4073 19.66C75.8073 19.3133 76.094 18.8 76.2673 18.12C76.4407 17.44 76.5273 16.6067 76.5273 15.62C76.5273 14.62 76.434 13.7933 76.2473 13.14C76.074 12.4733 75.7873 11.9733 75.3873 11.64C74.9873 11.3067 74.454 11.14 73.7873 11.14C73.1207 11.14 72.5873 11.3067 72.1873 11.64C71.7873 11.9733 71.5007 12.4733 71.3273 13.14C71.154 13.7933 71.0673 14.62 71.0673 15.62C71.0673 16.6067 71.154 17.44 71.3273 18.12C71.514 18.8 71.8073 19.3133 72.2073 19.66C72.6073 19.9933 73.1407 20.16 73.8073 20.16ZM80.2303 21V20.16H80.2903C80.597 20.16 80.8703 20.1267 81.1103 20.06C81.3636 19.9933 81.5636 19.86 81.7103 19.66C81.857 19.4467 81.9303 19.1333 81.9303 18.72V12.48C81.9303 12.08 81.8503 11.7867 81.6903 11.6C81.5436 11.4 81.3436 11.2733 81.0903 11.22C80.8503 11.1533 80.5836 11.12 80.2903 11.12H80.2303V10.28H83.3103L83.6903 12.26H83.7903C83.9636 11.86 84.1503 11.4933 84.3503 11.16C84.5503 10.8267 84.817 10.5667 85.1503 10.38C85.4836 10.18 85.9436 10.08 86.5303 10.08C87.2636 10.08 87.8036 10.2067 88.1503 10.46C88.5103 10.7133 88.6903 11.0733 88.6903 11.54C88.6903 11.9533 88.5436 12.2933 88.2503 12.56C87.9703 12.8267 87.497 12.96 86.8303 12.96C86.8303 12.5867 86.797 12.2867 86.7303 12.06C86.6636 11.8333 86.5503 11.6667 86.3903 11.56C86.2436 11.4533 86.037 11.4 85.7703 11.4C85.397 11.4 85.0836 11.5467 84.8303 11.84C84.577 12.1333 84.377 12.5067 84.2303 12.96C84.0836 13.4133 83.977 13.8867 83.9103 14.38C83.8436 14.86 83.8103 15.2933 83.8103 15.68V18.82C83.8103 19.2067 83.8836 19.5 84.0303 19.7C84.1903 19.8867 84.3903 20.0133 84.6303 20.08C84.8836 20.1333 85.157 20.16 85.4503 20.16H86.0103V21H80.2303ZM93.7844 21.2C92.771 21.2 92.031 20.9733 91.5644 20.52C91.111 20.0533 90.8844 19.2467 90.8844 18.1V11.42H89.3644V10.62C89.6044 10.62 89.871 10.5733 90.1644 10.48C90.4577 10.3733 90.711 10.2067 90.9244 9.98C91.151 9.74 91.3377 9.44667 91.4844 9.1C91.631 8.75333 91.751 8.32667 91.8444 7.82H92.7644V10.28H95.3844V11.42H92.7644V18.16C92.7644 18.84 92.9044 19.34 93.1844 19.66C93.4644 19.98 93.831 20.14 94.2844 20.14C94.5244 20.14 94.7444 20.1267 94.9444 20.1C95.1444 20.0733 95.351 20.04 95.5644 20V20.88C95.391 20.96 95.131 21.0333 94.7844 21.1C94.4377 21.1667 94.1044 21.2 93.7844 21.2ZM101.756 21.2C100.302 21.2 99.1623 20.72 98.3356 19.76C97.5223 18.8 97.1156 17.4533 97.1156 15.72C97.1156 13.8533 97.5023 12.4467 98.2756 11.5C99.049 10.5533 100.142 10.08 101.556 10.08C102.849 10.08 103.862 10.48 104.596 11.28C105.342 12.08 105.716 13.2733 105.716 14.86V15.78H99.0556C99.0823 16.7533 99.209 17.5467 99.4356 18.16C99.6623 18.7733 99.989 19.2267 100.416 19.52C100.856 19.8 101.396 19.94 102.036 19.94C102.502 19.94 102.916 19.8733 103.276 19.74C103.649 19.6067 103.969 19.4333 104.236 19.22C104.516 19.0067 104.736 18.78 104.896 18.54C104.989 18.58 105.076 18.66 105.156 18.78C105.236 18.9 105.276 19.0467 105.276 19.22C105.276 19.4867 105.149 19.7733 104.896 20.08C104.642 20.3867 104.256 20.6533 103.736 20.88C103.216 21.0933 102.556 21.2 101.756 21.2ZM103.696 14.7C103.696 13.9933 103.622 13.3733 103.476 12.84C103.342 12.3067 103.116 11.8933 102.796 11.6C102.476 11.3067 102.049 11.16 101.516 11.16C101.022 11.16 100.602 11.3 100.256 11.58C99.9223 11.8467 99.6556 12.24 99.4556 12.76C99.269 13.28 99.149 13.9267 99.0956 14.7H103.696ZM110.919 21.2C110.252 21.2 109.672 21.12 109.179 20.96C108.685 20.8 108.299 20.5667 108.019 20.26C107.752 19.94 107.619 19.5467 107.619 19.08C107.619 18.72 107.692 18.44 107.839 18.24C107.985 18.04 108.152 17.9 108.339 17.82C108.539 17.74 108.719 17.7 108.879 17.7C108.879 18.1667 108.945 18.5933 109.079 18.98C109.212 19.3667 109.439 19.6733 109.759 19.9C110.079 20.1267 110.505 20.24 111.039 20.24C111.745 20.24 112.285 20.0733 112.659 19.74C113.045 19.3933 113.239 18.9533 113.239 18.42C113.239 18.0867 113.165 17.8133 113.019 17.6C112.885 17.3867 112.639 17.18 112.279 16.98C111.932 16.7667 111.432 16.52 110.779 16.24C110.099 15.9333 109.532 15.64 109.079 15.36C108.639 15.0667 108.305 14.7333 108.079 14.36C107.865 13.9733 107.759 13.4933 107.759 12.92C107.759 12.0133 108.099 11.32 108.779 10.84C109.472 10.3467 110.385 10.1 111.519 10.1C112.159 10.1 112.692 10.1867 113.119 10.36C113.559 10.52 113.885 10.74 114.099 11.02C114.325 11.3 114.439 11.6067 114.439 11.94C114.439 12.3 114.312 12.5933 114.059 12.82C113.819 13.0333 113.465 13.14 112.999 13.14C112.999 12.4733 112.859 11.9533 112.579 11.58C112.299 11.2067 111.865 11.02 111.279 11.02C110.825 11.02 110.459 11.0867 110.179 11.22C109.899 11.3533 109.692 11.54 109.559 11.78C109.439 12.02 109.379 12.3 109.379 12.62C109.379 12.9533 109.459 13.2333 109.619 13.46C109.792 13.6867 110.059 13.9 110.419 14.1C110.792 14.2867 111.272 14.5 111.859 14.74C112.565 15.0333 113.139 15.3267 113.579 15.62C114.019 15.9133 114.339 16.2533 114.539 16.64C114.752 17.0267 114.859 17.5 114.859 18.06C114.859 19.1 114.499 19.8867 113.779 20.42C113.059 20.94 112.105 21.2 110.919 21.2Z" fill="white"/>
</svg>
