<svg width="119" height="27" viewBox="0 0 119 27" fill="none" xmlns="http://www.w3.org/2000/svg">
<path d="M13.4 3.5H6C5.46957 3.5 4.96086 3.71071 4.58579 4.08579C4.21071 4.46086 4 4.96957 4 5.5V21.5C4 22.0304 4.21071 22.5391 4.58579 22.9142C4.96086 23.2893 5.46957 23.5 6 23.5H18C18.5304 23.5 19.0391 23.2893 19.4142 22.9142C19.7893 22.5391 20 22.0304 20 21.5V14.1" stroke="white" stroke-width="2" stroke-linecap="round" stroke-linejoin="round"/>
<path d="M2 7.5H6" stroke="white" stroke-width="2" stroke-linecap="round" stroke-linejoin="round"/>
<path d="M2 11.5H6" stroke="white" stroke-width="2" stroke-linecap="round" stroke-linejoin="round"/>
<path d="M2 15.5H6" stroke="white" stroke-width="2" stroke-linecap="round" stroke-linejoin="round"/>
<path d="M2 19.5H6" stroke="white" stroke-width="2" stroke-linecap="round" stroke-linejoin="round"/>
<path d="M18.4 4.09999C18.8168 3.83093 19.3133 3.71284 19.8066 3.76538C20.3 3.81793 20.7604 4.03794 21.1112 4.38876C21.4621 4.73957 21.6821 5.20001 21.7346 5.69336C21.7872 6.1867 21.6691 6.68315 21.4 7.09999L16 12.5L12 13.5L13 9.49999L18.4 4.09999Z" stroke="white" stroke-width="2" stroke-linecap="round" stroke-linejoin="round"/>
<path d="M34.8381 21V20.16H35.0981C35.3915 20.16 35.6581 20.1333 35.8981 20.08C36.1515 20.0133 36.3515 19.8867 36.4981 19.7C36.6581 19.5 36.7381 19.2067 36.7381 18.82V8.92C36.7381 8.52 36.6581 8.22667 36.4981 8.04C36.3515 7.84 36.1515 7.71333 35.8981 7.66C35.6581 7.59333 35.3915 7.56 35.0981 7.56H34.8381V6.72H40.2181C41.3781 6.72 42.3381 6.86667 43.0981 7.16C43.8581 7.44 44.4248 7.86667 44.7981 8.44C45.1715 9 45.3581 9.71333 45.3581 10.58C45.3581 11.2867 45.2115 11.8867 44.9181 12.38C44.6248 12.86 44.2515 13.2467 43.7981 13.54C43.3581 13.8333 42.8981 14.06 42.4181 14.22L45.1581 18.56C45.3315 18.8267 45.4981 19.06 45.6581 19.26C45.8181 19.46 45.9781 19.6267 46.1381 19.76C46.3115 19.8933 46.4848 19.9933 46.6581 20.06C46.8448 20.1267 47.0448 20.16 47.2581 20.16H47.3181V21H47.0381C46.4115 21 45.8915 20.98 45.4781 20.94C45.0781 20.8867 44.7448 20.8 44.4781 20.68C44.2115 20.5467 43.9715 20.36 43.7581 20.12C43.5581 19.88 43.3448 19.5733 43.1181 19.2L40.4181 14.7H38.7581V18.82C38.7581 19.2067 38.8315 19.5 38.9781 19.7C39.1381 19.8867 39.3381 20.0133 39.5781 20.08C39.8315 20.1333 40.1048 20.16 40.3981 20.16H40.6581V21H34.8381ZM40.1581 13.76C40.9448 13.76 41.5581 13.6467 41.9981 13.42C42.4381 13.18 42.7515 12.8333 42.9381 12.38C43.1248 11.9133 43.2181 11.3333 43.2181 10.64C43.2181 9.92 43.1181 9.34667 42.9181 8.92C42.7181 8.48 42.3915 8.16667 41.9381 7.98C41.4848 7.78 40.8781 7.68 40.1181 7.68H38.7581V13.76H40.1581ZM52.9431 21.2C51.4898 21.2 50.3498 20.72 49.5231 19.76C48.7098 18.8 48.3031 17.4533 48.3031 15.72C48.3031 13.8533 48.6898 12.4467 49.4631 11.5C50.2365 10.5533 51.3298 10.08 52.7431 10.08C54.0365 10.08 55.0498 10.48 55.7831 11.28C56.5298 12.08 56.9031 13.2733 56.9031 14.86V15.78H50.2431C50.2698 16.7533 50.3965 17.5467 50.6231 18.16C50.8498 18.7733 51.1765 19.2267 51.6031 19.52C52.0431 19.8 52.5831 19.94 53.2231 19.94C53.6898 19.94 54.1031 19.8733 54.4631 19.74C54.8365 19.6067 55.1565 19.4333 55.4231 19.22C55.7031 19.0067 55.9231 18.78 56.0831 18.54C56.1765 18.58 56.2631 18.66 56.3431 18.78C56.4231 18.9 56.4631 19.0467 56.4631 19.22C56.4631 19.4867 56.3365 19.7733 56.0831 20.08C55.8298 20.3867 55.4431 20.6533 54.9231 20.88C54.4031 21.0933 53.7431 21.2 52.9431 21.2ZM54.8831 14.7C54.8831 13.9933 54.8098 13.3733 54.6631 12.84C54.5298 12.3067 54.3031 11.8933 53.9831 11.6C53.6631 11.3067 53.2365 11.16 52.7031 11.16C52.2098 11.16 51.7898 11.3 51.4431 11.58C51.1098 11.8467 50.8431 12.24 50.6431 12.76C50.4565 13.28 50.3365 13.9267 50.2831 14.7H54.8831ZM62.1063 21.2C61.4396 21.2 60.8596 21.12 60.3663 20.96C59.8729 20.8 59.4863 20.5667 59.2063 20.26C58.9396 19.94 58.8063 19.5467 58.8063 19.08C58.8063 18.72 58.8796 18.44 59.0263 18.24C59.1729 18.04 59.3396 17.9 59.5263 17.82C59.7263 17.74 59.9063 17.7 60.0663 17.7C60.0663 18.1667 60.1329 18.5933 60.2663 18.98C60.3996 19.3667 60.6263 19.6733 60.9463 19.9C61.2663 20.1267 61.6929 20.24 62.2263 20.24C62.9329 20.24 63.4729 20.0733 63.8463 19.74C64.2329 19.3933 64.4263 18.9533 64.4263 18.42C64.4263 18.0867 64.3529 17.8133 64.2063 17.6C64.0729 17.3867 63.8263 17.18 63.4663 16.98C63.1196 16.7667 62.6196 16.52 61.9663 16.24C61.2863 15.9333 60.7196 15.64 60.2663 15.36C59.8263 15.0667 59.4929 14.7333 59.2663 14.36C59.0529 13.9733 58.9463 13.4933 58.9463 12.92C58.9463 12.0133 59.2863 11.32 59.9663 10.84C60.6596 10.3467 61.5729 10.1 62.7063 10.1C63.3463 10.1 63.8796 10.1867 64.3063 10.36C64.7463 10.52 65.0729 10.74 65.2863 11.02C65.5129 11.3 65.6263 11.6067 65.6263 11.94C65.6263 12.3 65.4996 12.5933 65.2463 12.82C65.0063 13.0333 64.6529 13.14 64.1863 13.14C64.1863 12.4733 64.0463 11.9533 63.7663 11.58C63.4863 11.2067 63.0529 11.02 62.4663 11.02C62.0129 11.02 61.6463 11.0867 61.3663 11.22C61.0863 11.3533 60.8796 11.54 60.7463 11.78C60.6263 12.02 60.5663 12.3 60.5663 12.62C60.5663 12.9533 60.6463 13.2333 60.8063 13.46C60.9796 13.6867 61.2463 13.9 61.6063 14.1C61.9796 14.2867 62.4596 14.5 63.0462 14.74C63.7529 15.0333 64.3263 15.3267 64.7663 15.62C65.2063 15.9133 65.5263 16.2533 65.7263 16.64C65.9396 17.0267 66.0463 17.5 66.0463 18.06C66.0463 19.1 65.6863 19.8867 64.9663 20.42C64.2463 20.94 63.2929 21.2 62.1063 21.2ZM72.6697 21.2C71.2164 21.2 70.0764 20.72 69.2497 19.76C68.4364 18.8 68.0297 17.4533 68.0297 15.72C68.0297 13.8533 68.4164 12.4467 69.1897 11.5C69.963 10.5533 71.0564 10.08 72.4697 10.08C73.763 10.08 74.7764 10.48 75.5097 11.28C76.2564 12.08 76.6297 13.2733 76.6297 14.86V15.78H69.9697C69.9964 16.7533 70.123 17.5467 70.3497 18.16C70.5764 18.7733 70.903 19.2267 71.3297 19.52C71.7697 19.8 72.3097 19.94 72.9497 19.94C73.4164 19.94 73.8297 19.8733 74.1897 19.74C74.563 19.6067 74.883 19.4333 75.1497 19.22C75.4297 19.0067 75.6497 18.78 75.8097 18.54C75.903 18.58 75.9897 18.66 76.0697 18.78C76.1497 18.9 76.1897 19.0467 76.1897 19.22C76.1897 19.4867 76.063 19.7733 75.8097 20.08C75.5564 20.3867 75.1697 20.6533 74.6497 20.88C74.1297 21.0933 73.4697 21.2 72.6697 21.2ZM74.6097 14.7C74.6097 13.9933 74.5364 13.3733 74.3897 12.84C74.2564 12.3067 74.0297 11.8933 73.7097 11.6C73.3897 11.3067 72.963 11.16 72.4297 11.16C71.9364 11.16 71.5164 11.3 71.1697 11.58C70.8364 11.8467 70.5697 12.24 70.3697 12.76C70.183 13.28 70.063 13.9267 70.0097 14.7H74.6097ZM78.2928 21V20.16H78.3528C78.6595 20.16 78.9328 20.1267 79.1728 20.06C79.4261 19.9933 79.6261 19.86 79.7728 19.66C79.9195 19.4467 79.9928 19.1333 79.9928 18.72V12.48C79.9928 12.08 79.9128 11.7867 79.7528 11.6C79.6061 11.4 79.4061 11.2733 79.1528 11.22C78.9128 11.1533 78.6461 11.12 78.3528 11.12H78.2928V10.28H81.3728L81.7528 12.26H81.8528C82.0261 11.86 82.2128 11.4933 82.4128 11.16C82.6128 10.8267 82.8795 10.5667 83.2128 10.38C83.5461 10.18 84.0061 10.08 84.5928 10.08C85.3261 10.08 85.8661 10.2067 86.2128 10.46C86.5728 10.7133 86.7528 11.0733 86.7528 11.54C86.7528 11.9533 86.6061 12.2933 86.3128 12.56C86.0328 12.8267 85.5595 12.96 84.8928 12.96C84.8928 12.5867 84.8595 12.2867 84.7928 12.06C84.7261 11.8333 84.6128 11.6667 84.4528 11.56C84.3061 11.4533 84.0995 11.4 83.8328 11.4C83.4595 11.4 83.1461 11.5467 82.8928 11.84C82.6395 12.1333 82.4395 12.5067 82.2928 12.96C82.1461 13.4133 82.0395 13.8867 81.9728 14.38C81.9061 14.86 81.8728 15.2933 81.8728 15.68V18.82C81.8728 19.2067 81.9461 19.5 82.0928 19.7C82.2528 19.8867 82.4528 20.0133 82.6928 20.08C82.9461 20.1333 83.2195 20.16 83.5128 20.16H84.0728V21H78.2928ZM88.6069 12.18C88.5135 11.9 88.4002 11.6867 88.2669 11.54C88.1469 11.38 87.9935 11.2733 87.8069 11.22C87.6335 11.1533 87.4069 11.12 87.1269 11.12V10.28H92.1269V11.12H91.8669C91.4669 11.12 91.1669 11.2 90.9669 11.36C90.7669 11.5067 90.6669 11.7467 90.6669 12.08C90.6669 12.1867 90.6802 12.3 90.7069 12.42C90.7335 12.54 90.7735 12.6733 90.8269 12.82L92.1869 16.6C92.3069 16.92 92.4269 17.2733 92.5469 17.66C92.6669 18.0333 92.7735 18.3933 92.8669 18.74C92.9735 19.0733 93.0602 19.36 93.1269 19.6C93.1802 19.4133 93.2602 19.1667 93.3669 18.86C93.4735 18.5533 93.5935 18.2267 93.7269 17.88C93.8735 17.52 94.0069 17.18 94.1269 16.86L95.5669 12.96C95.6335 12.8 95.6802 12.6467 95.7069 12.5C95.7335 12.34 95.7469 12.2067 95.7469 12.1C95.7469 11.7533 95.6335 11.5067 95.4069 11.36C95.1935 11.2 94.8669 11.12 94.4269 11.12H94.2869V10.28H98.5669V11.12H98.3269C98.0735 11.12 97.8602 11.16 97.6869 11.24C97.5269 11.32 97.3802 11.4733 97.2469 11.7C97.1135 11.9267 96.9669 12.2533 96.8069 12.68L93.6469 21H91.8269L88.6069 12.18ZM102.729 21.2C102.142 21.2 101.609 21.0867 101.129 20.86C100.662 20.62 100.296 20.2667 100.029 19.8C99.7622 19.32 99.6289 18.72 99.6289 18C99.6289 16.9333 100.002 16.1467 100.749 15.64C101.509 15.1333 102.656 14.8533 104.189 14.8L105.849 14.74V13.54C105.849 13.06 105.809 12.64 105.729 12.28C105.649 11.9067 105.476 11.6133 105.209 11.4C104.942 11.1867 104.536 11.08 103.989 11.08C103.482 11.08 103.096 11.1733 102.829 11.36C102.562 11.5467 102.382 11.8067 102.289 12.14C102.209 12.46 102.169 12.8333 102.169 13.26C101.609 13.26 101.182 13.1667 100.889 12.98C100.609 12.78 100.469 12.4533 100.469 12C100.469 11.5333 100.629 11.16 100.949 10.88C101.282 10.6 101.722 10.4 102.269 10.28C102.816 10.1467 103.416 10.08 104.069 10.08C105.296 10.08 106.209 10.34 106.809 10.86C107.422 11.38 107.729 12.2733 107.729 13.54V18.72C107.729 19.0933 107.769 19.3867 107.849 19.6C107.929 19.8 108.062 19.9467 108.249 20.04C108.436 20.12 108.676 20.16 108.969 20.16H109.029V21H106.329L106.009 19.28H105.849C105.569 19.6533 105.296 19.9867 105.029 20.28C104.762 20.56 104.449 20.7867 104.089 20.96C103.742 21.12 103.289 21.2 102.729 21.2ZM103.189 19.96C103.736 19.96 104.202 19.8467 104.589 19.62C104.989 19.3933 105.296 19.0733 105.509 18.66C105.736 18.2333 105.849 17.74 105.849 17.18V15.56L104.569 15.62C103.809 15.6467 103.209 15.76 102.769 15.96C102.342 16.16 102.036 16.44 101.849 16.8C101.662 17.1467 101.569 17.58 101.569 18.1C101.569 18.5133 101.629 18.86 101.749 19.14C101.869 19.4067 102.049 19.6133 102.289 19.76C102.529 19.8933 102.829 19.96 103.189 19.96ZM114.098 21.2C113.432 21.2 112.852 21.12 112.358 20.96C111.865 20.8 111.478 20.5667 111.198 20.26C110.932 19.94 110.798 19.5467 110.798 19.08C110.798 18.72 110.872 18.44 111.018 18.24C111.165 18.04 111.332 17.9 111.518 17.82C111.718 17.74 111.898 17.7 112.058 17.7C112.058 18.1667 112.125 18.5933 112.258 18.98C112.392 19.3667 112.618 19.6733 112.938 19.9C113.258 20.1267 113.685 20.24 114.218 20.24C114.925 20.24 115.465 20.0733 115.838 19.74C116.225 19.3933 116.418 18.9533 116.418 18.42C116.418 18.0867 116.345 17.8133 116.198 17.6C116.065 17.3867 115.818 17.18 115.458 16.98C115.112 16.7667 114.612 16.52 113.958 16.24C113.278 15.9333 112.712 15.64 112.258 15.36C111.818 15.0667 111.485 14.7333 111.258 14.36C111.045 13.9733 110.938 13.4933 110.938 12.92C110.938 12.0133 111.278 11.32 111.958 10.84C112.652 10.3467 113.565 10.1 114.698 10.1C115.338 10.1 115.872 10.1867 116.298 10.36C116.738 10.52 117.065 10.74 117.278 11.02C117.505 11.3 117.618 11.6067 117.618 11.94C117.618 12.3 117.492 12.5933 117.238 12.82C116.998 13.0333 116.645 13.14 116.178 13.14C116.178 12.4733 116.038 11.9533 115.758 11.58C115.478 11.2067 115.045 11.02 114.458 11.02C114.005 11.02 113.638 11.0867 113.358 11.22C113.078 11.3533 112.872 11.54 112.738 11.78C112.618 12.02 112.558 12.3 112.558 12.62C112.558 12.9533 112.638 13.2333 112.798 13.46C112.972 13.6867 113.238 13.9 113.598 14.1C113.972 14.2867 114.452 14.5 115.038 14.74C115.745 15.0333 116.318 15.3267 116.758 15.62C117.198 15.9133 117.518 16.2533 117.718 16.64C117.932 17.0267 118.038 17.5 118.038 18.06C118.038 19.1 117.678 19.8867 116.958 20.42C116.238 20.94 115.285 21.2 114.098 21.2Z" fill="white"/>
</svg>
