<svg width="118" height="27" viewBox="0 0 118 27" fill="none" xmlns="http://www.w3.org/2000/svg">
<path d="M18 21.5C18 19.9087 17.3679 18.3826 16.2426 17.2574C15.1174 16.1321 13.5913 15.5 12 15.5C10.4087 15.5 8.88258 16.1321 7.75736 17.2574C6.63214 18.3826 6 19.9087 6 21.5" stroke="white" stroke-width="2" stroke-linecap="round" stroke-linejoin="round"/>
<path d="M12 15.5C14.2091 15.5 16 13.7091 16 11.5C16 9.29086 14.2091 7.5 12 7.5C9.79086 7.5 8 9.29086 8 11.5C8 13.7091 9.79086 15.5 12 15.5Z" stroke="white" stroke-width="2" stroke-linecap="round" stroke-linejoin="round"/>
<path d="M12 23.5C17.5228 23.5 22 19.0228 22 13.5C22 7.97715 17.5228 3.5 12 3.5C6.47715 3.5 2 7.97715 2 13.5C2 19.0228 6.47715 23.5 12 23.5Z" stroke="white" stroke-width="2" stroke-linecap="round" stroke-linejoin="round"/>
<path d="M41.3845 21.2C40.3312 21.2 39.4245 21.0533 38.6645 20.76C37.9179 20.4533 37.3445 19.9667 36.9445 19.3C36.5445 18.6333 36.3445 17.76 36.3445 16.68V8.92C36.3445 8.52 36.2645 8.22667 36.1045 8.04C35.9579 7.84 35.7579 7.71333 35.5045 7.66C35.2645 7.59333 34.9979 7.56 34.7045 7.56H34.4445V6.72H40.2645V7.56H40.0045C39.7112 7.56 39.4379 7.59333 39.1845 7.66C38.9312 7.72667 38.7312 7.86 38.5845 8.06C38.4379 8.26 38.3645 8.57333 38.3645 9V16.8C38.3645 17.5733 38.5045 18.1933 38.7845 18.66C39.0779 19.1267 39.4779 19.4667 39.9845 19.68C40.4912 19.8933 41.0645 20 41.7045 20C42.4779 20 43.1112 19.8667 43.6045 19.6C44.0979 19.3333 44.4645 18.9667 44.7045 18.5C44.9445 18.02 45.0645 17.48 45.0645 16.88V8.92C45.0645 8.52 44.9845 8.22667 44.8245 8.04C44.6779 7.84 44.4779 7.71333 44.2245 7.66C43.9845 7.59333 43.7179 7.56 43.4245 7.56H43.1645V6.72H48.1845V7.56H47.9245C47.6312 7.56 47.3579 7.59333 47.1045 7.66C46.8512 7.72667 46.6512 7.86 46.5045 8.06C46.3579 8.26 46.2845 8.57333 46.2845 9V16.92C46.2845 17.8 46.0979 18.56 45.7245 19.2C45.3512 19.84 44.7979 20.3333 44.0645 20.68C43.3445 21.0267 42.4512 21.2 41.3845 21.2ZM52.6805 21.2C52.0138 21.2 51.4338 21.12 50.9405 20.96C50.4471 20.8 50.0605 20.5667 49.7805 20.26C49.5138 19.94 49.3805 19.5467 49.3805 19.08C49.3805 18.72 49.4538 18.44 49.6005 18.24C49.7471 18.04 49.9138 17.9 50.1005 17.82C50.3005 17.74 50.4805 17.7 50.6405 17.7C50.6405 18.1667 50.7071 18.5933 50.8405 18.98C50.9738 19.3667 51.2005 19.6733 51.5205 19.9C51.8405 20.1267 52.2671 20.24 52.8005 20.24C53.5071 20.24 54.0471 20.0733 54.4205 19.74C54.8071 19.3933 55.0005 18.9533 55.0005 18.42C55.0005 18.0867 54.9271 17.8133 54.7805 17.6C54.6471 17.3867 54.4005 17.18 54.0405 16.98C53.6938 16.7667 53.1938 16.52 52.5405 16.24C51.8605 15.9333 51.2938 15.64 50.8405 15.36C50.4005 15.0667 50.0671 14.7333 49.8405 14.36C49.6271 13.9733 49.5205 13.4933 49.5205 12.92C49.5205 12.0133 49.8605 11.32 50.5405 10.84C51.2338 10.3467 52.1471 10.1 53.2805 10.1C53.9205 10.1 54.4538 10.1867 54.8805 10.36C55.3205 10.52 55.6471 10.74 55.8605 11.02C56.0871 11.3 56.2005 11.6067 56.2005 11.94C56.2005 12.3 56.0738 12.5933 55.8205 12.82C55.5805 13.0333 55.2271 13.14 54.7605 13.14C54.7605 12.4733 54.6205 11.9533 54.3405 11.58C54.0605 11.2067 53.6271 11.02 53.0405 11.02C52.5871 11.02 52.2205 11.0867 51.9405 11.22C51.6605 11.3533 51.4538 11.54 51.3205 11.78C51.2005 12.02 51.1405 12.3 51.1405 12.62C51.1405 12.9533 51.2205 13.2333 51.3805 13.46C51.5538 13.6867 51.8205 13.9 52.1805 14.1C52.5538 14.2867 53.0338 14.5 53.6205 14.74C54.3271 15.0333 54.9005 15.3267 55.3405 15.62C55.7805 15.9133 56.1005 16.2533 56.3005 16.64C56.5138 17.0267 56.6205 17.5 56.6205 18.06C56.6205 19.1 56.2605 19.8867 55.5405 20.42C54.8205 20.94 53.8671 21.2 52.6805 21.2ZM62.9639 21.2C61.9106 21.2 61.0972 20.8933 60.5239 20.28C59.9506 19.6533 59.6639 18.6533 59.6639 17.28V12.48C59.6639 12.08 59.5839 11.7867 59.4239 11.6C59.2772 11.4 59.0772 11.2733 58.8239 11.22C58.5839 11.1533 58.3172 11.12 58.0239 11.12H57.9639V10.28H61.5439V17.18C61.5439 17.7533 61.6039 18.2467 61.7239 18.66C61.8572 19.0733 62.0772 19.3867 62.3839 19.6C62.6906 19.8133 63.1106 19.92 63.6439 19.92C64.2306 19.92 64.7106 19.7867 65.0839 19.52C65.4572 19.24 65.7306 18.86 65.9039 18.38C66.0772 17.8867 66.1639 17.32 66.1639 16.68V12.56C66.1639 12.1333 66.0906 11.82 65.9439 11.62C65.7972 11.42 65.5972 11.2867 65.3439 11.22C65.1039 11.1533 64.8306 11.12 64.5239 11.12H64.4639V10.28H68.0439V18.82C68.0439 19.2067 68.1172 19.5 68.2639 19.7C68.4239 19.8867 68.6239 20.0133 68.8639 20.08C69.1172 20.1333 69.3906 20.16 69.6839 20.16H69.7439V21H66.5639L66.3039 19.38H66.2039C66.0039 19.7533 65.7772 20.06 65.5239 20.3C65.2839 20.54 65.0306 20.7267 64.7639 20.86C64.4972 20.98 64.2106 21.0667 63.9039 21.12C63.5972 21.1733 63.2839 21.2 62.9639 21.2ZM74.2992 21.2C73.7126 21.2 73.1792 21.0867 72.6992 20.86C72.2326 20.62 71.8659 20.2667 71.5992 19.8C71.3326 19.32 71.1992 18.72 71.1992 18C71.1992 16.9333 71.5726 16.1467 72.3192 15.64C73.0792 15.1333 74.2259 14.8533 75.7592 14.8L77.4192 14.74V13.54C77.4192 13.06 77.3792 12.64 77.2992 12.28C77.2192 11.9067 77.0459 11.6133 76.7792 11.4C76.5126 11.1867 76.1059 11.08 75.5592 11.08C75.0526 11.08 74.6659 11.1733 74.3992 11.36C74.1326 11.5467 73.9526 11.8067 73.8592 12.14C73.7792 12.46 73.7392 12.8333 73.7392 13.26C73.1792 13.26 72.7526 13.1667 72.4592 12.98C72.1792 12.78 72.0392 12.4533 72.0392 12C72.0392 11.5333 72.1992 11.16 72.5192 10.88C72.8526 10.6 73.2926 10.4 73.8392 10.28C74.3859 10.1467 74.9859 10.08 75.6392 10.08C76.8659 10.08 77.7792 10.34 78.3792 10.86C78.9926 11.38 79.2992 12.2733 79.2992 13.54V18.72C79.2992 19.0933 79.3392 19.3867 79.4192 19.6C79.4992 19.8 79.6326 19.9467 79.8192 20.04C80.0059 20.12 80.2459 20.16 80.5392 20.16H80.5992V21H77.8992L77.5792 19.28H77.4192C77.1392 19.6533 76.8659 19.9867 76.5992 20.28C76.3326 20.56 76.0192 20.7867 75.6592 20.96C75.3126 21.12 74.8592 21.2 74.2992 21.2ZM74.7592 19.96C75.3059 19.96 75.7726 19.8467 76.1592 19.62C76.5592 19.3933 76.8659 19.0733 77.0792 18.66C77.3059 18.2333 77.4192 17.74 77.4192 17.18V15.56L76.1392 15.62C75.3792 15.6467 74.7792 15.76 74.3392 15.96C73.9126 16.16 73.6059 16.44 73.4192 16.8C73.2326 17.1467 73.1392 17.58 73.1392 18.1C73.1392 18.5133 73.1992 18.86 73.3192 19.14C73.4392 19.4067 73.6192 19.6133 73.8592 19.76C74.0992 19.8933 74.3992 19.96 74.7592 19.96ZM74.7992 8.62C74.9992 8.36667 75.2059 8.06667 75.4192 7.72C75.6326 7.37333 75.8392 7.02 76.0392 6.66C76.2392 6.3 76.4059 5.97333 76.5392 5.68H78.6792V5.88C78.5592 6.05333 78.3792 6.27333 78.1392 6.54C77.8992 6.80667 77.6259 7.08667 77.3192 7.38C77.0259 7.67333 76.7259 7.95333 76.4192 8.22C76.1126 8.47333 75.8259 8.69333 75.5592 8.88H74.7992V8.62ZM82.1287 21V20.16H82.1888C82.4954 20.16 82.7688 20.1267 83.0088 20.06C83.2621 19.9933 83.4621 19.86 83.6088 19.66C83.7554 19.4467 83.8288 19.1333 83.8288 18.72V12.48C83.8288 12.08 83.7488 11.7867 83.5888 11.6C83.4421 11.4 83.2421 11.2733 82.9888 11.22C82.7488 11.1533 82.4821 11.12 82.1888 11.12H82.1287V10.28H85.2088L85.5888 12.26H85.6888C85.8621 11.86 86.0488 11.4933 86.2488 11.16C86.4488 10.8267 86.7154 10.5667 87.0488 10.38C87.3821 10.18 87.8421 10.08 88.4288 10.08C89.1621 10.08 89.7021 10.2067 90.0488 10.46C90.4088 10.7133 90.5888 11.0733 90.5888 11.54C90.5888 11.9533 90.4421 12.2933 90.1488 12.56C89.8688 12.8267 89.3954 12.96 88.7288 12.96C88.7288 12.5867 88.6954 12.2867 88.6288 12.06C88.5621 11.8333 88.4488 11.6667 88.2888 11.56C88.1421 11.4533 87.9354 11.4 87.6688 11.4C87.2954 11.4 86.9821 11.5467 86.7288 11.84C86.4754 12.1333 86.2754 12.5067 86.1288 12.96C85.9821 13.4133 85.8754 13.8867 85.8088 14.38C85.7421 14.86 85.7088 15.2933 85.7088 15.68V18.82C85.7088 19.2067 85.7821 19.5 85.9288 19.7C86.0888 19.8867 86.2888 20.0133 86.5288 20.08C86.7821 20.1333 87.0554 20.16 87.3487 20.16H87.9088V21H82.1287ZM91.3428 21V20.16H91.6028C91.8961 20.16 92.1628 20.1333 92.4028 20.08C92.6561 20.0133 92.8561 19.8867 93.0028 19.7C93.1628 19.5 93.2428 19.2067 93.2428 18.82V12.48C93.2428 12.08 93.1628 11.7867 93.0028 11.6C92.8561 11.4 92.6561 11.2733 92.4028 11.22C92.1628 11.1533 91.8961 11.12 91.6028 11.12H91.5428V10.28H95.1228V18.72C95.1228 19.1333 95.1961 19.4467 95.3428 19.66C95.4895 19.86 95.6895 19.9933 95.9428 20.06C96.1961 20.1267 96.4695 20.16 96.7628 20.16H97.0228V21H91.3428ZM94.1028 8.28C93.7828 8.28 93.5095 8.18667 93.2828 8C93.0695 7.81333 92.9628 7.49333 92.9628 7.04C92.9628 6.57333 93.0695 6.25333 93.2828 6.08C93.5095 5.89333 93.7828 5.8 94.1028 5.8C94.4095 5.8 94.6761 5.89333 94.9028 6.08C95.1295 6.25333 95.2428 6.57333 95.2428 7.04C95.2428 7.49333 95.1295 7.81333 94.9028 8C94.6761 8.18667 94.4095 8.28 94.1028 8.28ZM103.029 21.2C101.589 21.2 100.456 20.74 99.6291 19.82C98.8024 18.9 98.3891 17.5 98.3891 15.62C98.3891 13.7533 98.7824 12.3667 99.5691 11.46C100.369 10.54 101.542 10.08 103.089 10.08C104.529 10.08 105.662 10.54 106.489 11.46C107.316 12.3667 107.729 13.7533 107.729 15.62C107.729 17.5 107.329 18.9 106.529 19.82C105.742 20.74 104.576 21.2 103.029 21.2ZM103.069 20.16C103.736 20.16 104.269 19.9933 104.669 19.66C105.069 19.3133 105.356 18.8 105.529 18.12C105.702 17.44 105.789 16.6067 105.789 15.62C105.789 14.62 105.696 13.7933 105.509 13.14C105.336 12.4733 105.049 11.9733 104.649 11.64C104.249 11.3067 103.716 11.14 103.049 11.14C102.382 11.14 101.849 11.3067 101.449 11.64C101.049 11.9733 100.762 12.4733 100.589 13.14C100.416 13.7933 100.329 14.62 100.329 15.62C100.329 16.6067 100.416 17.44 100.589 18.12C100.776 18.8 101.069 19.3133 101.469 19.66C101.869 19.9933 102.402 20.16 103.069 20.16ZM113.032 21.2C112.365 21.2 111.785 21.12 111.292 20.96C110.799 20.8 110.412 20.5667 110.132 20.26C109.865 19.94 109.732 19.5467 109.732 19.08C109.732 18.72 109.805 18.44 109.952 18.24C110.099 18.04 110.265 17.9 110.452 17.82C110.652 17.74 110.832 17.7 110.992 17.7C110.992 18.1667 111.059 18.5933 111.192 18.98C111.325 19.3667 111.552 19.6733 111.872 19.9C112.192 20.1267 112.619 20.24 113.152 20.24C113.859 20.24 114.399 20.0733 114.772 19.74C115.159 19.3933 115.352 18.9533 115.352 18.42C115.352 18.0867 115.279 17.8133 115.132 17.6C114.999 17.3867 114.752 17.18 114.392 16.98C114.045 16.7667 113.545 16.52 112.892 16.24C112.212 15.9333 111.645 15.64 111.192 15.36C110.752 15.0667 110.419 14.7333 110.192 14.36C109.979 13.9733 109.872 13.4933 109.872 12.92C109.872 12.0133 110.212 11.32 110.892 10.84C111.585 10.3467 112.499 10.1 113.632 10.1C114.272 10.1 114.805 10.1867 115.232 10.36C115.672 10.52 115.999 10.74 116.212 11.02C116.439 11.3 116.552 11.6067 116.552 11.94C116.552 12.3 116.425 12.5933 116.172 12.82C115.932 13.0333 115.579 13.14 115.112 13.14C115.112 12.4733 114.972 11.9533 114.692 11.58C114.412 11.2067 113.979 11.02 113.392 11.02C112.939 11.02 112.572 11.0867 112.292 11.22C112.012 11.3533 111.805 11.54 111.672 11.78C111.552 12.02 111.492 12.3 111.492 12.62C111.492 12.9533 111.572 13.2333 111.732 13.46C111.905 13.6867 112.172 13.9 112.532 14.1C112.905 14.2867 113.385 14.5 113.972 14.74C114.679 15.0333 115.252 15.3267 115.692 15.62C116.132 15.9133 116.452 16.2533 116.652 16.64C116.865 17.0267 116.972 17.5 116.972 18.06C116.972 19.1 116.612 19.8867 115.892 20.42C115.172 20.94 114.219 21.2 113.032 21.2Z" fill="white"/>
</svg>
